<svg xmlns="http://www.w3.org/2000/svg" viewBox="0 0 1300 560" role="img" aria-labelledby="title description"><title id="title">stonevale guardrails</title><desc id="description">Untrusted text, Allowlist policy, Bounded action. Original geometric fantasy illustration of the lesson boundary.</desc><rect width="1300" height="560" rx="20" fill="#f5f5f5"/><path d="M70 65h1160M70 510h1160" fill="none" stroke="#bdbdbd" stroke-width="2"/><g fill="none" stroke="#111111" stroke-width="7" stroke-linecap="round" stroke-linejoin="round"><path d="M650 90 850 165v130c0 100-110 175-200 205-90-30-200-105-200-205V165z"/><path d="M650 135 805 195v100c0 75-80 135-155 165-75-30-155-90-155-165V195z" stroke="#999999"/><path d="m560 285 65 65 120-145"/><path d="m210 215 100 60-100 60m880-120-100 60 100 60" stroke-dasharray="10 10"/></g><g fill="#777777"><circle cx="100" cy="125" r="3"/><circle cx="1175" cy="115" r="4"/><circle cx="130" cy="425" r="4"/><circle cx="1205" cy="430" r="3"/></g></svg>
