<svg xmlns="http://www.w3.org/2000/svg" viewBox="0 0 1300 560" role="img" aria-labelledby="title description"><title id="title">terminal gate</title><desc id="description">Command text, Safe parser, Named action. Original geometric fantasy illustration of the lesson boundary.</desc><rect width="1300" height="560" rx="20" fill="#f5f5f5"/><path d="M70 65h1160M70 510h1160" fill="none" stroke="#bdbdbd" stroke-width="2"/><g fill="none" stroke="#111111" stroke-width="7" stroke-linecap="round" stroke-linejoin="round"><path d="M340 465V170a310 210 0 0 1 620 0v295M390 465V190a260 160 0 0 1 520 0v275"/><path d="M440 230h420v165H440z"/><path d="m490 275 50 35-50 35m90 0h100M260 480h790"/><circle cx="785" cy="310" r="25"/><path d="M785 335v25"/></g><g fill="#777777"><circle cx="100" cy="125" r="3"/><circle cx="1175" cy="115" r="4"/><circle cx="130" cy="425" r="4"/><circle cx="1205" cy="430" r="3"/></g></svg>
