<svg xmlns="http://www.w3.org/2000/svg" viewBox="0 0 1300 560" role="img" aria-labelledby="title description"><title id="title">eldoria laws</title><desc id="description">Durable rule, Path scope, Observed change. Original geometric fantasy illustration of the lesson boundary.</desc><rect width="1300" height="560" rx="20" fill="#f5f5f5"/><path d="M70 65h1160M70 510h1160" fill="none" stroke="#bdbdbd" stroke-width="2"/><g fill="none" stroke="#111111" stroke-width="7" stroke-linecap="round" stroke-linejoin="round"><path d="M210 130h300v300H210zM560 90h300v340H560zM910 160h220v270H910z"/><path d="M250 205h210m-210 65h140m-140 65h210M605 170h210m-210 65h150m-150 65h210m-210 65h115M945 230h135m-135 65h100m-100 65h135"/><path d="m210 455 450 30 460-30" stroke="#999999"/></g><g fill="#777777"><circle cx="100" cy="125" r="3"/><circle cx="1175" cy="115" r="4"/><circle cx="130" cy="425" r="4"/><circle cx="1205" cy="430" r="3"/></g></svg>
