<svg xmlns="http://www.w3.org/2000/svg" viewBox="0 0 1300 560" role="img" aria-labelledby="title description"><title id="title">stellaris agents</title><desc id="description">Test scout, Reviewed handoff, Implementer. Original geometric fantasy illustration of the lesson boundary.</desc><rect width="1300" height="560" rx="20" fill="#f5f5f5"/><path d="M70 65h1160M70 510h1160" fill="none" stroke="#bdbdbd" stroke-width="2"/><g fill="none" stroke="#111111" stroke-width="7" stroke-linecap="round" stroke-linejoin="round"><circle cx="270" cy="250" r="68"/><circle cx="650" cy="130" r="50"/><circle cx="1030" cy="250" r="68"/><circle cx="650" cy="395" r="65"/><path d="m330 225 270-80m100 0 270 80m0 60-270 95m-100 0-270-95M650 180v150"/><path d="m230 250 25 25 55-60m680 35 25 25 55-60M620 390h60m-30-30v60"/></g><g fill="#777777"><circle cx="100" cy="125" r="3"/><circle cx="1175" cy="115" r="4"/><circle cx="130" cy="425" r="4"/><circle cx="1205" cy="430" r="3"/></g></svg>
